<svg width="172" height="24" xmlns="http://www.w3.org/2000/svg" fill="none">

 <g>
  <title>Layer 1</title>
  <path id="svg_1" fill="white" d="m0,13.6625c0,-1.5304 0.30483,-2.8855 0.9145,-4.06557c0.62759,-1.18003 1.47036,-2.0927 2.52831,-2.73803c1.07588,-0.66377 2.26831,-0.99565 3.5773,-0.99565c0.96829,0 1.91865,0.22126 2.85107,0.66377c0.95032,0.42407 1.70352,0.99564 2.25932,1.71472l0,-7.35672l3.0932,0l0,20.46608l-3.0932,0l0,-2.2955c-0.502,0.7375 -1.2014,1.3459 -2.0979,1.8253c-0.87867,0.4794 -1.89179,0.7191 -3.03939,0.7191c-1.29105,0 -2.47452,-0.3319 -3.5504,-0.9956c-1.05795,-0.6822 -1.90072,-1.6226 -2.52831,-2.821c-0.60967,-1.2169 -0.9145,-2.5906 -0.9145,-4.1209zm12.1305,0.0553c0,-1.051 -0.2151,-1.9636 -0.6455,-2.738c-0.4124,-0.7744 -0.9593,-1.36443 -1.64071,-1.77007c-0.68139,-0.40563 -1.41658,-0.60845 -2.20555,-0.60845c-0.78898,0 -1.52416,0.20282 -2.20555,0.60845c-0.68139,0.3872 -1.23726,0.96797 -1.66762,1.74237c-0.41242,0.756 -0.61863,1.6594 -0.61863,2.7104c0,1.0509 0.20621,1.9728 0.61863,2.7657c0.43036,0.7928 0.98623,1.4012 1.66762,1.8253c0.69932,0.4057 1.4345,0.6085 2.20555,0.6085c0.78897,0 1.52416,-0.2028 2.20555,-0.6085c0.68141,-0.4056 1.22831,-0.9956 1.64071,-1.77c0.4304,-0.7928 0.6455,-1.7147 0.6455,-2.7657z"/>
  <path id="svg_2" fill="white" d="m32.834,13.3583c0,0.5715 -0.0358,1.0878 -0.1075,1.5487l-11.3237,0c0.0897,1.2169 0.529,2.1942 1.318,2.9317c0.789,0.7375 1.7573,1.1062 2.9049,1.1062c1.6496,0 2.8152,-0.7098 3.4966,-2.1295l3.3083,0c-0.4483,1.4012 -1.2642,2.5536 -2.4476,3.4571c-1.1656,0.885 -2.618,1.3275 -4.3573,1.3275c-1.4166,0 -2.6897,-0.3227 -3.8194,-0.968c-1.1118,-0.6638 -1.9904,-1.5856 -2.6359,-2.7657c-0.6276,-1.1984 -0.9414,-2.5813 -0.9414,-4.1485c0,-1.5672 0.3048,-2.9408 0.9145,-4.12087c0.6276,-1.19847 1.4973,-2.12036 2.609,-2.76569c1.1297,-0.64532 2.4207,-0.96799 3.8732,-0.96799c1.3986,0 2.6448,0.31345 3.7386,0.94033c1.0938,0.62689 1.9456,1.51191 2.5552,2.65506c0.6097,1.12476 0.9145,2.42456 0.9145,3.89966zm-3.2007,-0.9957c-0.0179,-1.1616 -0.4214,-2.0927 -1.2104,-2.79333c-0.7889,-0.70064 -1.7662,-1.05096 -2.9317,-1.05096c-1.058,0 -1.9635,0.35032 -2.7166,1.05096c-0.7531,0.68223 -1.2014,1.61333 -1.3449,2.79333l8.2036,0z"/>
  <path id="svg_3" fill="white" d="m41.5806,18.5301l4.1959,-12.41794l3.2545,0l-5.6483,15.23894l-3.658,0l-5.6215,-15.23894l3.2815,0l4.1959,12.41794z"/>
  <path id="svg_4" fill="white" d="m52.5861,21.5447c-0.5559,0 -1.0221,-0.1936 -1.3987,-0.5808c-0.3765,-0.3872 -0.5648,-0.8666 -0.5648,-1.4382c0,-0.5715 0.1883,-1.0509 0.5648,-1.4381c0.3766,-0.3872 0.8428,-0.5808 1.3987,-0.5808c0.5379,0 0.9952,0.1936 1.3717,0.5808c0.3766,0.3872 0.5648,0.8666 0.5648,1.4381c0,0.5716 -0.1882,1.051 -0.5648,1.4382c-0.3765,0.3872 -0.8338,0.5808 -1.3717,0.5808z"/>
  <path id="svg_5" fill="white" d="m64.0498,8.68425l-2.7434,0l0,12.66685l-3.0932,0l0,-12.66685l-1.7483,0l0,-2.57209l1.7483,0l0,-1.07861c0,-1.75161 0.4483,-3.02382 1.3449,-3.81665c0.9145,-0.81127 2.34,-1.2169 4.2766,-1.2169l0,2.6274c-0.9325,0 -1.5869,0.18438 -1.9635,0.55314c-0.3766,0.35032 -0.5648,0.96799 -0.5648,1.85301l0,1.07861l2.7434,0l0,2.57209z"/>
  <path id="svg_6" fill="white" d="m68.3273,4.09321c-0.5559,0 -1.0221,-0.19359 -1.3986,-0.58079c-0.3766,-0.3872 -0.5649,-0.86658 -0.5649,-1.43816c0,-0.57157 0.1883,-1.05096 0.5649,-1.43815c0.3765,-0.3872 0.8427,-0.5808 1.3986,-0.5808c0.5379,0 0.9952,0.1936 1.3718,0.5808c0.3765,0.38719 0.5648,0.86658 0.5648,1.43815c0,0.57158 -0.1883,1.05096 -0.5648,1.43816c-0.3766,0.3872 -0.8339,0.58079 -1.3718,0.58079zm1.5062,2.01895l0,15.23894l-3.0662,0l0,-15.23894l3.0662,0z"/>
  <path id="svg_7" fill="white" d="m81.3366,5.86325c1.1655,0 2.2056,0.24891 3.12,0.74674c0.9325,0.49782 1.6587,1.23534 2.1787,2.21255c0.52,0.9772 0.78,2.15726 0.78,3.54006l0,8.9885l-3.0393,0l0,-8.5183c0,-1.3644 -0.3318,-2.4062 -0.9952,-3.12525c-0.6635,-0.73751 -1.569,-1.10627 -2.7166,-1.10627c-1.1476,0 -2.0621,0.36876 -2.7435,1.10627c-0.6635,0.71905 -0.9952,1.76085 -0.9952,3.12525l0,8.5183l-3.0662,0l0,-15.23894l3.0662,0l0,1.74239c0.5021,-0.62689 1.1386,-1.1155 1.9097,-1.46582c0.789,-0.35032 1.6228,-0.52548 2.5014,-0.52548z"/>
  <path id="svg_8" fill="white" d="m90.3044,13.6625c0,-1.5304 0.3049,-2.8855 0.9145,-4.06557c0.6276,-1.18003 1.4704,-2.0927 2.5283,-2.73803c1.0759,-0.66377 2.2594,-0.99565 3.5504,-0.99565c1.1656,0 2.1787,0.2397 3.0394,0.71908c0.879,0.46095 1.578,1.04174 2.098,1.74238l0,-2.21255l3.093,0l0,15.23894l-3.093,0l0,-2.2679c-0.52,0.7191 -1.228,1.3183 -2.125,1.7977c-0.8965,0.4794 -1.9186,0.7191 -3.0662,0.7191c-1.2731,0 -2.4386,-0.3319 -3.4966,-0.9956c-1.0579,-0.6822 -1.9007,-1.6226 -2.5283,-2.821c-0.6096,-1.2169 -0.9145,-2.5906 -0.9145,-4.1209zm12.1306,0.0553c0,-1.051 -0.215,-1.9636 -0.646,-2.738c-0.412,-0.7744 -0.959,-1.36443 -1.64,-1.77007c-0.6817,-0.40563 -1.4169,-0.60845 -2.2058,-0.60845c-0.789,0 -1.5242,0.20282 -2.2056,0.60845c-0.6814,0.3872 -1.2372,0.96797 -1.6676,1.74237c-0.4124,0.756 -0.6186,1.6594 -0.6186,2.7104c0,1.0509 0.2062,1.9728 0.6186,2.7657c0.4304,0.7928 0.9862,1.4012 1.6676,1.8253c0.6993,0.4057 1.4345,0.6085 2.2056,0.6085c0.7889,0 1.5241,-0.2028 2.2058,-0.6085c0.681,-0.4056 1.228,-0.9956 1.64,-1.77c0.431,-0.7928 0.646,-1.7147 0.646,-2.7657z"/>
  <path id="svg_9" fill="white" d="m117.033,5.86325c1.165,0 2.205,0.24891 3.12,0.74674c0.932,0.49782 1.659,1.23534 2.179,2.21255c0.52,0.9772 0.78,2.15726 0.78,3.54006l0,8.9885l-3.04,0l0,-8.5183c0,-1.3644 -0.332,-2.4062 -0.995,-3.12525c-0.663,-0.73751 -1.569,-1.10627 -2.717,-1.10627c-1.147,0 -2.062,0.36876 -2.743,1.10627c-0.664,0.71905 -0.995,1.76085 -0.995,3.12525l0,8.5183l-3.066,0l0,-15.23894l3.066,0l0,1.74239c0.502,-0.62689 1.138,-1.1155 1.909,-1.46582c0.789,-0.35032 1.623,-0.52548 2.502,-0.52548z"/>
  <path id="svg_10" fill="white" d="m126.001,13.7178c0,-1.5672 0.305,-2.9408 0.914,-4.12087c0.628,-1.19847 1.488,-2.12036 2.582,-2.76569c1.094,-0.64532 2.349,-0.96799 3.766,-0.96799c1.793,0 3.272,0.44251 4.438,1.32753c1.183,0.86658 1.981,2.11114 2.394,3.73372l-3.309,0c-0.269,-0.756 -0.699,-1.34601 -1.291,-1.77008c-0.591,-0.42407 -1.336,-0.63611 -2.232,-0.63611c-1.255,0 -2.259,0.46095 -3.013,1.38284c-0.735,0.90345 -1.102,2.17565 -1.102,3.81665c0,1.641 0.367,2.9224 1.102,3.8443c0.754,0.9219 1.758,1.3828 3.013,1.3828c1.775,0 2.95,-0.802 3.523,-2.4061l3.309,0c-0.431,1.5488 -1.238,2.7841 -2.421,3.706c-1.184,0.9035 -2.654,1.3552 -4.411,1.3552c-1.417,0 -2.672,-0.3227 -3.766,-0.968c-1.094,-0.6638 -1.954,-1.5856 -2.582,-2.7657c-0.609,-1.1984 -0.914,-2.5813 -0.914,-4.1485z"/>
  <path id="svg_11" fill="white" d="m156.733,13.3583c0,0.5715 -0.035,1.0878 -0.107,1.5487l-11.324,0c0.09,1.2169 0.529,2.1942 1.318,2.9317c0.789,0.7375 1.757,1.1062 2.905,1.1062c1.65,0 2.815,-0.7098 3.497,-2.1295l3.308,0c-0.448,1.4012 -1.264,2.5536 -2.448,3.4571c-1.165,0.885 -2.618,1.3275 -4.357,1.3275c-1.417,0 -2.69,-0.3227 -3.819,-0.968c-1.112,-0.6638 -1.991,-1.5856 -2.636,-2.7657c-0.628,-1.1984 -0.942,-2.5813 -0.942,-4.1485c0,-1.5672 0.305,-2.9408 0.915,-4.12087c0.627,-1.19847 1.497,-2.12036 2.609,-2.76569c1.13,-0.64532 2.421,-0.96799 3.873,-0.96799c1.399,0 2.645,0.31345 3.739,0.94033c1.094,0.62689 1.945,1.51191 2.555,2.65506c0.61,1.12476 0.914,2.42456 0.914,3.89966zm-3.2,-0.9957c-0.018,-1.1616 -0.422,-2.0927 -1.211,-2.79333c-0.789,-0.70064 -1.766,-1.05096 -2.931,-1.05096c-1.058,0 -1.964,0.35032 -2.717,1.05096c-0.753,0.68223 -1.201,1.61333 -1.345,2.79333l8.204,0z"/>
  <path id="svg_12" fill="#3e57e6" d="m52.5865,21.5447c-0.5558,0 -1.0221,-0.1936 -1.3986,-0.5808c-0.3766,-0.3872 -0.5649,-0.8665 -0.5649,-1.4381c0,-0.5716 0.1883,-1.051 0.5649,-1.4382c0.3765,-0.3872 0.8428,-0.5808 1.3986,-0.5808c0.538,0 0.9952,0.1936 1.3718,0.5808c0.3765,0.3872 0.5648,0.8666 0.5648,1.4382c0,0.5716 -0.1883,1.0509 -0.5648,1.4381c-0.3766,0.3872 -0.8338,0.5808 -1.3718,0.5808z"/>
  <path id="svg_13" fill="#3e57e6" d="m171.999,17.325c0,0.7807 -0.226,1.5146 -0.678,2.2016c-0.435,0.687 -1.086,1.2648 -1.955,1.7332c-0.851,0.4684 -1.864,0.7495 -3.04,0.8432l0,1.8971l-1.765,0l0,-1.8971c-1.701,-0.1406 -3.076,-0.6012 -4.126,-1.3819c-1.05,-0.7807 -1.575,-1.8112 -1.575,-3.0916l3.312,0c0.055,0.6089 0.281,1.1164 0.679,1.5224c0.398,0.3903 0.968,0.6402 1.71,0.7495l0,-5.1527c-1.212,-0.2655 -2.199,-0.5309 -2.959,-0.7964c-0.76,-0.281 -1.411,-0.7182 -1.954,-1.3116c-0.525,-0.5933 -0.788,-1.4052 -0.788,-2.4358c0,-1.29596 0.525,-2.36554 1.575,-3.20871c1.05,-0.85878 2.425,-1.35843 4.126,-1.49896l0,-1.89713l1.765,0l0,1.89713c1.592,0.12491 2.868,0.56211 3.827,1.31159c0.978,0.73387 1.53,1.7488 1.656,3.04478l-3.312,0c-0.054,-0.48404 -0.271,-0.91343 -0.651,-1.28817c-0.38,-0.39036 -0.887,-0.6558 -1.52,-0.79633l0,5.059c1.212,0.2498 2.198,0.5153 2.959,0.7963c0.76,0.2655 1.402,0.6949 1.927,1.2882c0.525,0.5777 0.787,1.3819 0.787,2.4124zm-9.99,-7.2606c0,0.6402 0.218,1.1398 0.652,1.499c0.452,0.3591 1.086,0.6479 1.9,0.8665l0,-4.73107c-0.778,0.07808 -1.402,0.3201 -1.873,0.72607c-0.452,0.40597 -0.679,0.95247 -0.679,1.6395zm4.317,9.837c0.796,-0.1093 1.42,-0.3826 1.873,-0.8198c0.452,-0.4528 0.678,-0.9915 0.678,-1.6161c0,-0.6245 -0.226,-1.1086 -0.678,-1.4521c-0.435,-0.3591 -1.059,-0.648 -1.873,-0.8666l0,4.7546z"/>
 </g>
</svg>